<svg xmlns="http://www.w3.org/2000/svg" viewBox="0 0 335.11 100.0" width="335.11" height="100.0"><g transform="translate(0.0 0)"><path d="M14 40V14H40" fill="none" stroke="#F4F1EA" stroke-width="11" stroke-linecap="round" stroke-linejoin="round"/><path d="M86 60V86H60" fill="none" stroke="#F4F1EA" stroke-width="11" stroke-linecap="round" stroke-linejoin="round"/><circle cx="50" cy="50" r="13" fill="#D4FF3F" stroke="#0F1216" stroke-width="6"/></g><g transform="translate(115.864 90.47399999999999)"><path d="M6.135999999999999 0.0V-17.7L38.232 -44.367999999999995V-46.256H7.316V-58.528H54.516V-40.827999999999996L22.419999999999998 -14.16V-12.271999999999998H55.459999999999994V0.0Z M65.844 0.0V-82.6H80.71199999999999V0.0Z M121.53999999999999 1.652Q112.80799999999999 1.652 105.84599999999999 -1.888Q98.88399999999999 -5.428 94.87199999999999 -12.154Q90.85999999999999 -18.88 90.85999999999999 -28.32V-30.208Q90.85999999999999 -39.647999999999996 94.87199999999999 -46.373999999999995Q98.88399999999999 -53.099999999999994 105.84599999999999 -56.64Q112.80799999999999 -60.18 121.53999999999999 -60.18Q130.272 -60.18 137.23399999999998 -56.64Q144.19599999999997 -53.099999999999994 148.20799999999997 -46.373999999999995Q152.21999999999997 -39.647999999999996 152.21999999999997 -30.208V-28.32Q152.21999999999997 -18.88 148.20799999999997 -12.154Q144.19599999999997 -5.428 137.23399999999998 -1.888Q130.272 1.652 121.53999999999999 1.652ZM121.53999999999999 -11.564Q128.384 -11.564 132.868 -15.988999999999999Q137.35199999999998 -20.413999999999998 137.35199999999998 -28.674V-29.854Q137.35199999999998 -38.114 132.92699999999996 -42.539Q128.50199999999998 -46.964 121.53999999999999 -46.964Q114.69599999999998 -46.964 110.21199999999999 -42.539Q105.72799999999998 -38.114 105.72799999999998 -29.854V-28.674Q105.72799999999998 -20.413999999999998 110.21199999999999 -15.988999999999999Q114.69599999999998 -11.564 121.53999999999999 -11.564Z M189.86199999999997 1.652Q181.36599999999999 1.652 174.46299999999997 -1.888Q167.55999999999997 -5.428 163.54799999999997 -12.154Q159.53599999999997 -18.88 159.53599999999997 -28.438V-30.09Q159.53599999999997 -39.647999999999996 163.54799999999997 -46.373999999999995Q167.55999999999997 -53.099999999999994 174.46299999999997 -56.64Q181.36599999999999 -60.18 189.86199999999997 -60.18Q198.23999999999998 -60.18 204.25799999999998 -57.23Q210.27599999999998 -54.279999999999994 213.993 -49.14699999999999Q217.70999999999998 -44.013999999999996 218.89 -37.524L204.49399999999997 -34.455999999999996Q204.02199999999996 -37.995999999999995 202.36999999999995 -40.827999999999996Q200.71799999999996 -43.66 197.70899999999997 -45.312Q194.7 -46.964 190.21599999999998 -46.964Q185.73199999999997 -46.964 182.13299999999998 -45.016999999999996Q178.53399999999996 -43.07 176.46899999999997 -39.235Q174.40399999999997 -35.4 174.40399999999997 -29.854V-28.674Q174.40399999999997 -23.128 176.46899999999997 -19.293Q178.53399999999996 -15.457999999999998 182.13299999999998 -13.511Q185.73199999999997 -11.564 190.21599999999998 -11.564Q196.94199999999998 -11.564 200.42299999999997 -15.045Q203.90399999999997 -18.526 204.84799999999996 -24.189999999999998L219.24399999999997 -20.768Q217.70999999999998 -14.514 213.993 -9.381Q210.27599999999998 -4.247999999999999 204.25799999999998 -1.2979999999999996Q198.23999999999998 1.652 189.86199999999997 1.652Z" fill="#F4F1EA"/></g></svg>